<svg xmlns="http://www.w3.org/2000/svg" xmlns:xlink="http://www.w3.org/1999/xlink" width="336" zoomAndPan="magnify" viewBox="0 0 252 143.999998" height="192" preserveAspectRatio="xMidYMid meet" version="1.0"><defs><g/><clipPath id="bcf78ac328"><path d="M 89.4375 63.742188 L 105.953125 63.742188 L 105.953125 80.257812 L 89.4375 80.257812 Z M 89.4375 63.742188 " clip-rule="nonzero"/></clipPath><clipPath id="946648e5fb"><path d="M 97.695312 63.742188 C 93.136719 63.742188 89.4375 67.4375 89.4375 72 C 89.4375 76.5625 93.136719 80.257812 97.695312 80.257812 C 102.257812 80.257812 105.953125 76.5625 105.953125 72 C 105.953125 67.4375 102.257812 63.742188 97.695312 63.742188 Z M 97.695312 63.742188 " clip-rule="nonzero"/></clipPath><clipPath id="c2f0f6ac16"><path d="M 89.4375 66.289062 L 109.964844 66.289062 L 109.964844 77 L 89.4375 77 Z M 89.4375 66.289062 " clip-rule="nonzero"/></clipPath></defs><rect x="-25.2" width="302.4" fill="#ffffff" y="-14.4" height="172.799997" fill-opacity="1"/><rect x="-25.2" width="302.4" fill="#5271ff" y="-14.4" height="172.799997" fill-opacity="1"/><g fill="#ffffff" fill-opacity="1"><g transform="translate(109.626432, 76.465889)"><g><path d="M 6 -1.90625 C 5.417969 -1.699219 4.929688 -1.558594 4.519531 -1.558594 C 3.785156 -1.558594 3.386719 -1.996094 3.386719 -2.832031 L 3.386719 -5.34375 L 6.011719 -5.34375 L 6.011719 -7.078125 L 3.386719 -7.078125 L 3.386719 -9.011719 L 1.542969 -8.613281 L 1.542969 -7.078125 L 0.28125 -7.078125 L 0.28125 -5.34375 L 1.542969 -5.34375 L 1.542969 -2.730469 C 1.542969 -0.695312 2.78125 0.15625 4.195312 0.15625 C 5.046875 0.15625 5.921875 -0.15625 6.308594 -0.410156 Z M 6 -1.90625 "/></g></g></g><g fill="#ffffff" fill-opacity="1"><g transform="translate(116.01136, 76.465889)"><g><path d="M 4.246094 -7.234375 C 2.214844 -7.234375 0.566406 -5.675781 0.566406 -3.539062 C 0.566406 -1.414062 2.1875 0.15625 4.246094 0.15625 C 6.320312 0.15625 7.941406 -1.402344 7.941406 -3.539062 C 7.941406 -5.675781 6.292969 -7.234375 4.246094 -7.234375 Z M 4.246094 -5.484375 C 5.277344 -5.484375 6.074219 -4.699219 6.074219 -3.539062 C 6.074219 -2.367188 5.277344 -1.597656 4.246094 -1.597656 C 3.21875 -1.597656 2.421875 -2.367188 2.421875 -3.539062 C 2.421875 -4.699219 3.21875 -5.484375 4.246094 -5.484375 Z M 4.246094 -5.484375 "/></g></g></g><g fill="#ffffff" fill-opacity="1"><g transform="translate(124.121251, 76.465889)"><g><path d="M 4.246094 -7.234375 C 2.214844 -7.234375 0.566406 -5.675781 0.566406 -3.539062 C 0.566406 -1.414062 2.1875 0.15625 4.246094 0.15625 C 6.320312 0.15625 7.941406 -1.402344 7.941406 -3.539062 C 7.941406 -5.675781 6.292969 -7.234375 4.246094 -7.234375 Z M 4.246094 -5.484375 C 5.277344 -5.484375 6.074219 -4.699219 6.074219 -3.539062 C 6.074219 -2.367188 5.277344 -1.597656 4.246094 -1.597656 C 3.21875 -1.597656 2.421875 -2.367188 2.421875 -3.539062 C 2.421875 -4.699219 3.21875 -5.484375 4.246094 -5.484375 Z M 4.246094 -5.484375 "/></g></g></g><g fill="#ffffff" fill-opacity="1"><g transform="translate(132.231141, 76.465889)"><g><path d="M 0.746094 0 L 2.585938 0 L 2.585938 -9.910156 L 0.746094 -9.910156 Z M 0.746094 0 "/></g></g></g><g fill="#ffffff" fill-opacity="1"><g transform="translate(135.166148, 76.465889)"><g><path d="M 4.8125 -7.234375 C 3.824219 -7.234375 3.0625 -6.769531 2.574219 -6.089844 L 2.574219 -9.910156 L 0.734375 -9.910156 L 0.734375 0 L 2.574219 0 L 2.574219 -0.953125 C 3.078125 -0.28125 3.808594 0.15625 4.8125 0.15625 C 6.65625 0.15625 8.046875 -1.363281 8.046875 -3.539062 C 8.046875 -5.726562 6.628906 -7.234375 4.8125 -7.234375 Z M 4.390625 -1.597656 C 3.359375 -1.597656 2.574219 -2.367188 2.574219 -3.539062 C 2.574219 -4.699219 3.359375 -5.484375 4.390625 -5.484375 C 5.417969 -5.484375 6.179688 -4.699219 6.179688 -3.539062 C 6.179688 -2.367188 5.40625 -1.597656 4.390625 -1.597656 Z M 4.390625 -1.597656 "/></g></g></g><g fill="#ffffff" fill-opacity="1"><g transform="translate(143.379018, 76.465889)"><g><path d="M 1.660156 -10.351562 C 1.015625 -10.351562 0.515625 -9.898438 0.515625 -9.269531 C 0.515625 -8.636719 1.015625 -8.175781 1.660156 -8.175781 C 2.328125 -8.175781 2.804688 -8.636719 2.804688 -9.269531 C 2.804688 -9.898438 2.328125 -10.351562 1.660156 -10.351562 Z M 0.734375 0 L 2.574219 0 L 2.574219 -7.078125 L 0.734375 -7.078125 Z M 0.734375 0 "/></g></g></g><g fill="#ffffff" fill-opacity="1"><g transform="translate(146.314025, 76.465889)"><g><path d="M 4.789062 -7.234375 C 3.785156 -7.234375 3.011719 -6.769531 2.574219 -5.84375 L 2.574219 -7.078125 L 0.734375 -7.078125 L 0.734375 0 L 2.574219 0 L 2.574219 -3.152344 C 2.574219 -4.828125 3.578125 -5.34375 4.75 -5.34375 C 4.957031 -5.34375 5.058594 -5.328125 5.199219 -5.316406 L 5.199219 -7.207031 C 5.085938 -7.222656 4.957031 -7.234375 4.789062 -7.234375 Z M 4.789062 -7.234375 "/></g></g></g><g fill="#ffffff" fill-opacity="1"><g transform="translate(151.398795, 76.465889)"><g><path d="M 6.128906 -9.910156 L 6.128906 -6.089844 C 5.636719 -6.769531 4.890625 -7.234375 3.886719 -7.234375 C 2.074219 -7.234375 0.667969 -5.726562 0.667969 -3.539062 C 0.667969 -1.363281 2.058594 0.15625 3.902344 0.15625 C 4.890625 0.15625 5.636719 -0.28125 6.128906 -0.953125 L 6.128906 0 L 7.96875 0 L 7.96875 -9.910156 Z M 4.3125 -1.597656 C 3.296875 -1.597656 2.523438 -2.367188 2.523438 -3.539062 C 2.523438 -4.699219 3.28125 -5.484375 4.3125 -5.484375 C 5.34375 -5.484375 6.128906 -4.699219 6.128906 -3.539062 C 6.128906 -2.367188 5.34375 -1.597656 4.3125 -1.597656 Z M 4.3125 -1.597656 "/></g></g></g><g clip-path="url(#bcf78ac328)"><g clip-path="url(#946648e5fb)"><path fill="#ffffff" d="M 89.4375 63.742188 L 105.953125 63.742188 L 105.953125 80.257812 L 89.4375 80.257812 Z M 89.4375 63.742188 " fill-opacity="1" fill-rule="nonzero"/></g></g><g clip-path="url(#c2f0f6ac16)"><path fill="#5271ff" d="M 89.824219 66.335938 C 89.820312 66.3125 89.84375 66.296875 89.863281 66.308594 C 90.183594 66.503906 91.980469 67.570312 94.339844 67.875 C 96.871094 68.203125 96.398438 69.425781 98.472656 70.402344 C 98.578125 70.453125 98.703125 70.464844 98.816406 70.4375 C 99.34375 70.316406 100.960938 69.988281 102 70.316406 C 102.992188 70.628906 102.667969 71.1875 102.488281 71.382812 C 102.457031 71.414062 102.445312 71.460938 102.449219 71.503906 C 102.460938 71.652344 102.476562 71.972656 102.378906 72.066406 C 102.367188 72.078125 102.351562 72.070312 102.351562 72.058594 C 102.332031 71.949219 102.253906 71.5625 102.089844 71.519531 C 101.898438 71.472656 100.917969 71.957031 100.917969 71.957031 C 100.917969 71.957031 103.960938 72.484375 105.539062 73.335938 C 107.101562 74.179688 107.84375 75.414062 109.953125 76.246094 C 109.972656 76.253906 109.96875 76.277344 109.953125 76.28125 C 109.785156 76.324219 109.253906 76.425781 108.636719 76.203125 L 109.003906 76.578125 C 109.023438 76.601562 109.007812 76.636719 108.976562 76.632812 C 108.757812 76.621094 108.09375 76.546875 107 76.070312 L 107.550781 76.652344 C 107.570312 76.671875 107.550781 76.699219 107.527344 76.691406 C 107.023438 76.554688 104.363281 75.800781 102.535156 74.894531 C 100.960938 74.113281 99.300781 73.949219 98.640625 73.917969 C 98.445312 73.90625 98.246094 73.953125 98.078125 74.050781 C 97.546875 74.359375 96.371094 75.140625 95.921875 76.230469 C 95.917969 76.242188 95.914062 76.25 95.910156 76.261719 C 95.339844 77.707031 95.070312 75.398438 95.070312 75.398438 C 95.070312 75.398438 93.746094 75.957031 94.085938 74.78125 C 94.085938 74.78125 92.746094 74.925781 93.371094 74.066406 C 93.371094 74.066406 91.371094 74.503906 91.621094 73.980469 C 91.628906 73.960938 91.640625 73.9375 91.660156 73.917969 C 92.1875 73.246094 95.015625 72.632812 95.785156 72.476562 C 95.871094 72.460938 95.90625 72.351562 95.84375 72.289062 C 95.472656 71.894531 94.316406 70.777344 92.164062 69.6875 C 90.210938 68.691406 89.933594 68.003906 89.894531 67.816406 C 89.886719 67.789062 89.910156 67.765625 89.933594 67.769531 L 90.59375 67.859375 C 90.59375 67.859375 89.648438 67.351562 89.445312 66.875 C 89.4375 66.855469 89.453125 66.835938 89.472656 66.839844 L 90.15625 67.015625 C 90.15625 67.015625 89.898438 66.726562 89.824219 66.335938 " fill-opacity="1" fill-rule="nonzero"/></g></svg>