<svg xmlns="http://www.w3.org/2000/svg" xmlns:xlink="http://www.w3.org/1999/xlink" width="500" zoomAndPan="magnify" viewBox="0 0 375 374.999991" height="500" preserveAspectRatio="xMidYMid meet" version="1.0"><defs><g/><clipPath id="a1ea184cba"><path d="M 0 0 L 374.011719 0 L 374.011719 375 L 0 375 Z M 0 0 " clip-rule="nonzero"/></clipPath><clipPath id="0bf7b7266a"><path d="M 187.007812 0 C 83.726562 0 0 83.945312 0 187.5 C 0 291.054688 83.726562 375 187.007812 375 C 290.285156 375 374.011719 291.054688 374.011719 187.5 C 374.011719 83.945312 290.285156 0 187.007812 0 Z M 187.007812 0 " clip-rule="nonzero"/></clipPath></defs><g clip-path="url(#a1ea184cba)"><g clip-path="url(#0bf7b7266a)"><path fill="#051d40" d="M 0 0 L 374.011719 0 L 374.011719 375.472656 L 0 375.472656 Z M 0 0 " fill-opacity="1" fill-rule="nonzero"/></g></g><g fill="#ffffff" fill-opacity="1"><g transform="translate(110.734188, 246.10351)"><g><path d="M 139.578125 -101.78125 C 139.578125 -86.125 133.410156 -73.117188 121.078125 -62.765625 C 108.753906 -52.421875 91.882812 -47.15625 70.46875 -46.96875 C 70.101562 -43.726562 69.921875 -41.835938 69.921875 -41.296875 C 69.921875 -40.765625 70.820312 -40.132812 72.625 -39.40625 C 74.425781 -38.6875 78.023438 -37.429688 83.421875 -35.640625 C 108.972656 -26.640625 125.484375 -18.851562 132.953125 -12.28125 C 140.421875 -5.71875 144.15625 1.523438 144.15625 9.453125 C 144.15625 21.867188 137.765625 31.453125 124.984375 38.203125 C 112.210938 44.953125 95.476562 48.328125 74.78125 48.328125 C 64.882812 48.328125 54.535156 47.5625 43.734375 46.03125 C 32.929688 44.5 21.679688 42.203125 9.984375 39.140625 L 14.578125 7.296875 C 48.054688 12.515625 71.585938 15.125 85.171875 15.125 C 98.765625 15.125 105.5625 13.679688 105.5625 10.796875 C 105.5625 8.816406 90.171875 2.425781 59.390625 -8.375 C 45.890625 -13.226562 38.460938 -16.191406 37.109375 -17.265625 C 35.765625 -18.347656 35.09375 -19.613281 35.09375 -21.0625 C 35.09375 -23.9375 38.601562 -34.015625 45.625 -51.296875 C 19.707031 -60.296875 6.75 -77.929688 6.75 -104.203125 C 6.75 -114.640625 8.726562 -123.726562 12.6875 -131.46875 C 16.644531 -139.207031 22.132812 -145.238281 29.15625 -149.5625 C 42.832031 -158.019531 60.109375 -162.25 80.984375 -162.25 L 149.5625 -159.015625 L 149.5625 -134.71875 L 132.828125 -132.015625 C 137.328125 -122.296875 139.578125 -112.21875 139.578125 -101.78125 Z M 74.234375 -77.484375 C 85.398438 -77.484375 92.828125 -79.460938 96.515625 -83.421875 C 100.203125 -87.378906 102.046875 -95.566406 102.046875 -107.984375 C 102.046875 -120.398438 101.054688 -127.597656 99.078125 -129.578125 C 97.097656 -131.554688 89.851562 -132.546875 77.34375 -132.546875 C 64.832031 -132.546875 56.460938 -130.878906 52.234375 -127.546875 C 48.003906 -124.222656 45.890625 -116.9375 45.890625 -105.6875 C 45.890625 -94.4375 47.820312 -86.921875 51.6875 -83.140625 C 55.5625 -79.367188 63.078125 -77.484375 74.234375 -77.484375 Z M 74.234375 -77.484375 "/></g></g></g></svg>